<svg width="48" height="48" viewBox="0 0 48 48" fill="none" xmlns="http://www.w3.org/2000/svg">
<path d="M21.1772 21.1772C18.8395 21.1772 16.4686 22.0654 14.5912 23.536C12.7138 25.0067 11.2722 27.1445 11.2722 29.6523V33.9003C11.2722 38.5757 15.0823 42.3754 19.7577 42.3754H28.2432C32.9186 42.3754 36.7288 38.5757 36.7288 33.9003V29.6523C36.7288 27.1445 35.2871 25.0067 33.4097 23.536C31.5323 22.0654 29.1614 21.1772 26.8238 21.1772C26.4526 21.1775 26.0965 21.3237 25.8322 21.5843L24.0057 23.4212L22.1687 21.5843C21.9044 21.3237 21.5483 21.1775 21.1772 21.1772ZM20.7388 24.1518L23.0037 26.4167C23.2686 26.68 23.627 26.8278 24.0005 26.8278C24.374 26.8278 24.7323 26.68 24.9972 26.4167L27.2621 24.1518C28.7412 24.2615 30.4065 24.7825 31.6667 25.7696C33.0519 26.8547 33.9003 28.2436 33.9003 29.6523V33.9003C33.9003 37.058 31.4009 39.5469 28.2432 39.5469H19.7577C16.6 39.5469 14.1007 37.058 14.1007 33.9003V29.6523C14.1007 28.2436 14.9491 26.8547 16.3343 25.7696C17.5944 24.7825 19.2597 24.2615 20.7388 24.1518ZM23.9952 5.62561C20.498 5.62561 17.6389 8.48472 17.6389 11.9819C17.6389 15.4792 20.498 18.3487 23.9952 18.3487C27.4925 18.3487 30.362 15.4792 30.362 11.9819C30.362 8.48472 27.4925 5.62561 23.9952 5.62561ZM23.9952 8.44369C25.9642 8.44369 27.5335 10.013 27.5335 11.9819C27.5335 13.9509 25.9642 15.5202 23.9952 15.5202C22.0263 15.5202 20.4674 13.9509 20.4674 11.9819C20.4674 10.013 22.0263 8.44369 23.9952 8.44369Z" fill="#303030"/>
<path d="M31.6354 22.5654C31.3822 22.5607 31.1324 22.6241 30.912 22.7489C30.6917 22.8738 30.509 23.0555 30.3829 23.2751L27.951 27.3665L24.9972 24.4128C24.8672 24.2749 24.7108 24.1646 24.5373 24.0884C24.3639 24.0121 24.1768 23.9716 23.9873 23.969C23.7979 23.9665 23.6098 24.0021 23.4344 24.0737C23.2589 24.1452 23.0996 24.2513 22.966 24.3857C22.8324 24.52 22.7271 24.6799 22.6564 24.8557C22.5858 25.0315 22.5512 25.2197 22.5547 25.4092C22.5582 25.5987 22.5998 25.7855 22.6769 25.9586C22.754 26.1316 22.8652 26.2874 23.0037 26.4167L27.2412 30.6543C27.3938 30.8059 27.579 30.9206 27.7827 30.9899C27.9863 31.0591 28.2031 31.081 28.4164 31.0538C28.6298 31.0266 28.8341 30.9511 29.0139 30.8331C29.1937 30.715 29.3442 30.5575 29.454 30.3725L32.8148 24.7259C32.9469 24.5133 33.0203 24.2695 33.0274 24.0192C33.0345 23.769 32.975 23.5214 32.8551 23.3017C32.7351 23.082 32.559 22.8981 32.3447 22.7687C32.1304 22.6393 31.8856 22.5692 31.6354 22.5654Z" fill="#303030"/>
<path d="M16.3238 22.5758C16.0787 22.5878 15.8409 22.6633 15.6338 22.795C15.4267 22.9266 15.2574 23.11 15.1426 23.3269C15.0279 23.5438 14.9715 23.7869 14.9791 24.0322C14.9868 24.2775 15.0581 24.5165 15.1861 24.7259L18.547 30.3725C18.6567 30.5575 18.8072 30.715 18.987 30.8331C19.1668 30.9511 19.3711 31.0266 19.5845 31.0538C19.7978 31.081 20.0146 31.0591 20.2182 30.9899C20.4219 30.9207 20.6071 30.8059 20.7597 30.6543L24.9972 26.4168C25.1357 26.2875 25.2469 26.1317 25.324 25.9586C25.4011 25.7855 25.4427 25.5987 25.4462 25.4092C25.4497 25.2198 25.4151 25.0315 25.3445 24.8557C25.2738 24.6799 25.1685 24.5201 25.0349 24.3857C24.9013 24.2514 24.742 24.1453 24.5665 24.0737C24.3911 24.0021 24.203 23.9665 24.0136 23.9691C23.8241 23.9716 23.6371 24.0122 23.4636 24.0884C23.2901 24.1646 23.1337 24.2749 23.0037 24.4128L20.0499 27.3666L17.618 23.2751C17.4872 23.051 17.2973 22.8673 17.069 22.7439C16.8407 22.6206 16.5829 22.5624 16.3238 22.5758ZM28.2432 32.4808C27.8681 32.4808 27.5084 32.6298 27.2432 32.8951C26.978 33.1603 26.829 33.52 26.829 33.8951C26.829 34.2702 26.978 34.6299 27.2432 34.8951C27.5084 35.1604 27.8681 35.3094 28.2432 35.3094H29.6523C30.0273 35.3094 30.3871 35.1604 30.6523 34.8951C30.9175 34.6299 31.0665 34.2702 31.0665 33.8951C31.0665 33.52 30.9175 33.1603 30.6523 32.8951C30.3871 32.6298 30.0273 32.4808 29.6523 32.4808H28.2432Z" fill="#303030"/>
</svg>
