<svg width="48" height="48" viewBox="0 0 48 48" fill="none" xmlns="http://www.w3.org/2000/svg">
<path d="M13.3703 22.472C9.52568 22.472 6.35956 25.7511 6.35956 29.5956V35.2496C6.35956 39.0941 9.52568 42.3734 13.3703 42.3734H26.1478C29.9924 42.3734 33.1585 39.0941 33.1585 35.2496V29.5956C33.1585 25.7511 29.9924 22.472 26.1478 22.472H13.3703ZM13.3703 25.4119H26.1478C28.5224 25.4119 30.3316 27.221 30.3316 29.5956V35.2496C30.3316 37.6241 28.5224 39.5464 26.1478 39.5464H13.3703C10.9957 39.5464 9.18645 37.6241 9.18645 35.2496V29.5956C9.18645 27.221 10.9957 25.4119 13.3703 25.4119Z" fill="#303030"/>
<path d="M14.8403 28.1257C14.388 28.239 14.0487 28.3516 13.8226 28.5781L10.9957 31.4051C10.4303 31.9705 10.4303 32.875 10.9957 33.4404L13.8226 36.2673C15.1795 37.6242 17.2149 35.589 15.858 34.232L13.9357 32.4227L15.858 30.6136C16.7626 29.709 16.0841 28.1259 14.8403 28.1259V28.1257ZM24.6779 28.1257C23.434 28.1257 22.7556 29.7088 23.6602 30.6134L25.5825 32.4226L23.6602 34.2317C22.4164 35.5886 24.3386 37.6241 25.6956 36.2672L28.5224 33.4402C29.0878 32.8748 29.0878 31.9703 28.5224 31.4049L25.6956 28.578C25.4694 28.352 25.1302 28.1255 24.6779 28.1255V28.1257Z" fill="#303030"/>
<path d="M19.0241 5.62354C15.1795 5.62354 12.0134 8.78963 12.0134 12.6342V23.9417C12.0134 25.8641 14.8403 25.8641 14.8403 23.9417V12.6342C14.8403 10.2596 16.6495 8.33735 19.0241 8.33735H34.6285C37.0031 8.33735 38.8123 10.2596 38.8123 12.6342V29.5955C38.8123 31.9701 37.0031 33.8925 34.6285 33.8925H31.8016C29.8793 33.8925 29.8793 36.7193 31.8016 36.7193H34.6285C38.4731 36.7193 41.6392 33.4401 41.6392 29.5955V12.6342C41.6392 8.78963 38.4731 5.62354 34.6285 5.62354H19.0241Z" fill="#303030"/>
<path d="M19.024 11.1641C17.2148 11.1641 17.2148 13.9911 19.024 13.9911H20.494C22.3032 13.9911 22.3032 11.1641 20.494 11.1641H19.024ZM26.1478 11.1641C24.2255 11.1641 24.2255 13.9911 26.1478 13.9911H34.6285C36.4377 13.9911 36.4377 11.1641 34.6285 11.1641H26.1478ZM33.1585 16.8179C31.3493 16.8179 31.3493 19.6448 33.1585 19.6448H34.6285C36.4377 19.6448 36.4377 16.8179 34.6285 16.8179H33.1585ZM21.8509 16.8179C20.0417 16.8179 20.0417 19.6448 21.8509 19.6448H27.5047C29.427 19.6448 29.427 16.8179 27.5047 16.8179H21.8509ZM20.381 28.1256C19.7025 28.2388 19.2502 28.691 19.1371 29.2563L17.6671 34.9101C16.9887 36.8324 20.0417 37.6238 20.381 35.5885L21.8509 29.9347C22.0771 29.0301 21.3986 28.1256 20.381 28.1256Z" fill="#303030"/>
</svg>
